<svg xmlns="http://www.w3.org/2000/svg"><symbol viewBox="0 0 20 20" id="ui-add_comment"><path id="add_comment-a" d="M19.99 2c0-1.1-.89-2-1.99-2H2C.9 0 0 .9 0 2v12c0 1.1.9 2 2 2h14l4 4-.01-18zM15 9h-4v4H9V9H5V7h4V3h2v4h4v2z"/></symbol><symbol viewBox="0 0 21 21" id="ui-add_shopping_cart"><path d="M10 8h2V5h3V3h-3V0h-2v3H7v2h3v3zm-4 9c-1.1 0-2 .9-2 2s.9 2 2 2 2-.9 2-2-.9-2-2-2zm10 0c-1.1 0-2 .9-2 2s.9 2 2 2 2-.9 2-2-.9-2-2-2zm-9.8-3.2v-.1l.9-1.7h7.5c.8 0 1.4-.4 1.7-1l3.9-7-1.7-1-1.1 2-2.8 5h-7l-.2-.3L5.2 5l-1-2-.9-2H0v2h2l3.6 7.6L4.2 13c-.1.3-.2.7-.2 1 0 1.1.9 2 2 2h12v-2H6.4c-.1 0-.2-.1-.2-.2z"/></symbol><symbol viewBox="0 0 19 17" id="ui-android"><path d="M3.02 6h-.05a.96.96 0 0 0-.97.95v4.1a.96.96 0 0 0 .97.96H3a.96.96 0 0 0 1-.94v-4.1A.96.96 0 0 0 3 6zM5 13a1.04 1.04 0 0 0 1 1h1v2a.98.98 0 0 0 1 1 .98.98 0 0 0 1-1v-2h1v2a.98.98 0 0 0 1 1 .98.98 0 0 0 1-1v-2h1a1.04 1.04 0 0 0 1-1V6H5v7zm6.92-11.53l.82-1.22a.16.16 0 0 0-.05-.23.18.18 0 0 0-.25.05l-.85 1.26a5.78 5.78 0 0 0-4.2 0L6.57.07a.18.18 0 0 0-.24-.05.17.17 0 0 0-.06.23l.82 1.22A3.64 3.64 0 0 0 5 5c0 .1 0-.1 0 0h9c0-.1 0 .1 0 0a3.64 3.64 0 0 0-2.08-3.53zM7.5 4a.5.5 0 1 1 .5-.5.5.5 0 0 1-.5.5zm4 0a.5.5 0 1 1 .5-.5.5.5 0 0 1-.5.5zm4.53 2H16a.96.96 0 0 0-1 .94v4.12a.96.96 0 0 0 1 .94h.03a.96.96 0 0 0 .97-.94v-4.1a.96.96 0 0 0-.97-.96z"/></symbol><symbol viewBox="0 0 8 13" id="ui-arrow_button"><path d="M.73 8.023c.188 0 .375-.068.518-.204l3.506-3.323c.283-.269.283-.701 0-.969l-3.505-3.324c-.285-.27-.747-.271-1.033-.003-.286.267-.288.703-.003.972l2.994 2.839-2.995 2.84c-.284.269-.283.704.004.972.142.133.328.2.514.2z"/></symbol><symbol viewBox="0 0 12 7" id="ui-arrow_down"><path d="M10.6 0L6 4.4 1.4 0 0 1.4 6 7l6-5.6z"/></symbol><symbol viewBox="0 0 12 18" id="ui-arrow_left-lg"><path d="M12 2.3L9.6 0 0 9.03 9.62 18l2.4-2.24L4.6 8.83z"/></symbol><symbol viewBox="0 0 8 12" id="ui-arrow_left-md"><path d="M6.82 12a1.26 1.26 0 0 1-.83-.3L.32 6.74a.94.94 0 0 1 0-1.46L6 .3a1.3 1.3 0 0 1 1.65 0 .94.94 0 0 1 0 1.45L2.85 6l4.8 4.25a.94.94 0 0 1 0 1.46 1.26 1.26 0 0 1-.83.3z"/></symbol><symbol viewBox="0 0 8 15" id="ui-arrow_right_thin-lg"><path d="M8.001 7.501l-.888.937-6.224 6.563-.889-.937 6.224-6.563-6.224-6.563.889-.938 6.224 6.563.888.938z"/></symbol><symbol viewBox="0 0 6 11" id="ui-arrow_right_thin-md"><path d="M6.001 5.5l-.667.688-4.667 4.813-.667-.688 4.668-4.813-4.668-4.812.667-.688 4.667 4.813.667.687z"/></symbol><symbol viewBox="0 0 12 18" id="ui-arrow_right-lg"><path d="M0 2.3L2.4 0 12 9.03 2.38 18l-2.4-2.24L7.4 8.83z"/></symbol><symbol viewBox="0 0 8 12" id="ui-arrow_right-md"><path d="M0 1.41L4.59 6 0 10.59 1.42 12l6-6-6-6z"/></symbol><symbol viewBox="0 0 16 16" id="ui-arrow_thin_left"><path d="M16 7H3.83l5.59-5.59L8 0 0 8l8 8 1.41-1.41L3.83 9H16V7z"/></symbol><symbol viewBox="0 0 16 16" id="ui-arrow_thin_right"><path d="M8 0L6.59 1.41 12.17 7H0v2h12.17l-5.58 5.59L8 16l8-8z"/></symbol><symbol viewBox="0 0 12 7" id="ui-arrow_up"><path d="M1.4 7L6 2.6 10.6 7 12 5.6 6 0 0 5.5z"/></symbol><symbol viewBox="0 0 18 18" id="ui-assessment-24px"><path d="M16 0H2C.9 0 0 .9 0 2v14c0 1.1.9 2 2 2h14c1.1 0 2-.9 2-2V2c0-1.1-.9-2-2-2zm0 16H2V2h14v14z"/><path d="M4 7h2v7H4zM8 4h2v10H8zM12 10h2v4h-2z"/></symbol><symbol viewBox="0 0 24 24" id="ui-b-logo-orj"> <path d="M11.9934286,21.6728571 C6.64771429,21.6728571 2.314,17.3392857 2.314,11.9934286 C2.314,6.64757143 6.64771429,2.314 11.9934286,2.314 C17.3391429,2.314 21.6728571,6.64757143 21.6728571,11.9934286 C21.6728571,17.3392857 17.3391429,21.6728571 11.9934286,21.6728571 M11.9934286,-5.68434189e-14 C5.36971429,-5.68434189e-14 1.42108547e-13,5.36957143 1.42108547e-13,11.9934286 C1.42108547e-13,18.6171429 5.36971429,23.9868571 11.9934286,23.9868571 C18.6172857,23.9868571 23.9868571,18.6171429 23.9868571,11.9934286 C23.9868571,5.36957143 18.6172857,-5.68434189e-14 11.9934286,-5.68434189e-14"/> <path d="M14.6782857,14.6865714 C14.6782857,14.2377143 14.538,13.8542857 14.2575714,13.5364286 C13.977,13.2184286 13.5375714,13.0594286 12.939,13.0594286 L10.2272857,13.0594286 L10.2272857,16.3322857 L12.939,16.3322857 C13.5375714,16.3322857 13.977,16.1704286 14.2575714,15.846 C14.538,15.522 14.6782857,15.1354286 14.6782857,14.6865714 M14.4911429,9.18814286 C14.4911429,8.72714286 14.3445714,8.356 14.0517143,8.07557143 C13.7587143,7.795 13.3317143,7.65471429 12.7705714,7.65471429 L10.2272857,7.65471429 L10.2272857,10.7217143 L12.7705714,10.7217143 C13.3317143,10.7217143 13.7587143,10.5815714 14.0517143,10.301 C14.3445714,10.0204286 14.4911429,9.64957143 14.4911429,9.18814286 M17.2777143,14.8174286 C17.2777143,15.441 17.1778571,15.9895714 16.9785714,16.4632857 C16.779,16.9371429 16.4984286,17.336 16.137,17.6601429 C15.7752857,17.9844286 15.3451429,18.2305714 14.8465714,18.3987143 C14.3478571,18.5671429 13.7992857,18.6512857 13.2008571,18.6512857 L7.62771429,18.6512857 L7.62771429,5.33571429 L12.9764286,5.33571429 C14.2855714,5.33571429 15.2984286,5.67228571 16.0154286,6.34557143 C16.7322857,7.01885714 17.0908571,7.92914286 17.0908571,9.076 C17.0908571,9.45014286 17.0375714,9.78671429 16.9317143,10.0858571 C16.8257143,10.3851429 16.6885714,10.6502857 16.5204286,10.8807143 C16.352,11.1115714 16.1711429,11.308 15.978,11.4698571 C15.7845714,11.632 15.6068571,11.7504286 15.445,11.8252857 C15.6444286,11.925 15.8532857,12.0527143 16.0715714,12.2085714 C16.2894286,12.3645714 16.4858571,12.561 16.6605714,12.7977143 C16.8351429,13.0347143 16.9814286,13.3184286 17.1001429,13.6485714 C17.2184286,13.9791429 17.2777143,14.3685714 17.2777143,14.8174286"/> </symbol><symbol viewBox="0 0 60 26" id="ui-cargo_truck_fast"><path d="M17.14 22.68h1.3a5.67 5.67 0 0 1 1.3-2.4h-4.4s-1 2.4 1.8 2.4zm6.28.1zm.7-3.4a4.6 4.6 0 0 0-4.2 3.3 2.5 2.5 0 0 0 2.5 3.32 4.6 4.6 0 0 0 4.2-3.3 2.47 2.47 0 0 0-2.5-3.33zm.9 3.4a2.34 2.34 0 0 1-2.1 1.7 1.3 1.3 0 0 1-1.3-1.7 2.34 2.34 0 0 1 2.1-1.7 1.3 1.3 0 0 1 1.3 1.7zm3.2-.2h16.73a5.67 5.67 0 0 1 1.3-2.4H28.2a4.93 4.93 0 0 1 0 2.4zm26.6 0h2c2.2 0 2.5-2.4 2.5-2.4h-4.6a4.82 4.82 0 0 1 .1 2.4zM60 14.36l-1.1-6.93c-.3-1.5-1-3.1-3.8-3.1h-5.07c-1.1 0-1.8.1-2.1 1.2-.1.5-2.68 10.93-2.68 10.93h-1.2l3.8-15.15a1 1 0 0 0-1-1.3H21.62a2 2 0 0 0-1.6 1.1l-.1.3-.6 2.32h-8.87a1.1 1.1 0 0 0 0 2.2h12.66a1 1 0 0 1 1 1 .94.94 0 0 1-1 1H1.1a1.1 1.1 0 0 0 0 2.2h19.53a1 1 0 0 1 0 2.02H5.78a1.1 1.1 0 0 0 0 2.2h12.56a1 1 0 0 1 1 1 .94.94 0 0 1-1 1h-2.1l-.1.5-.2.7-.5 1.9h5.3a6.35 6.35 0 0 1 3.68-1.3 3.67 3.67 0 0 1 3 1.3h19.82a6.35 6.35 0 0 1 3.7-1.3 3.67 3.67 0 0 1 2.98 1.3h4.8zm-4.8 0l-1.38-1.7c-.3-.4-.6-.7-1.9-.7h-3.38l1.4-5.63h4.78a1.88 1.88 0 0 1 2.2 1.9c.3 1.8.7 4.72.9 6.13h-2.6zm-4.57 5a4.6 4.6 0 0 0-4.2 3.33 2.5 2.5 0 0 0 2.5 3.3 4.6 4.6 0 0 0 4.2-3.3 2.47 2.47 0 0 0-2.5-3.33zm.9 3.33a2.34 2.34 0 0 1-2.1 1.7 1.3 1.3 0 0 1-1.3-1.7 2.34 2.34 0 0 1 2.1-1.72 1.38 1.38 0 0 1 1.3 1.7z"/></symbol><symbol viewBox="0 0 26 16" id="ui-cargo_truck"><path d="M25 15h-2.05a2.5 2.5 0 1 0-4.9 0H7.95a2.5 2.5 0 1 0-4.9 0H1c-.8 0-1-.2-1-.73V1.23A1.14 1.14 0 0 1 1 0h20l2 8h2c.73 0 1 2 1 2.74v3.47c0 .84-.18.8-1 .8zM20.46 4.46a.6.6 0 0 0-.62-.43L16.44 4a.44.44 0 0 0-.45.43v3.13a.44.44 0 0 0 .42.43h4.17a.43.43 0 0 0 .42-.45zM5.5 13A1.5 1.5 0 1 1 4 14.5 1.5 1.5 0 0 1 5.5 13zm0 2a.5.5 0 1 0-.5-.5.5.5 0 0 0 .5.5zm15-2a1.5 1.5 0 1 1-1.5 1.5 1.5 1.5 0 0 1 1.5-1.5zm0 2a.5.5 0 1 0-.5-.5.5.5 0 0 0 .5.5z"/></symbol><symbol viewBox="0 0 11 9" id="ui-check-sm"><path d="M-.008 4.484a.952.952 0 0 0 .224.624L3.308 8.73a.688.688 0 0 0 1.07 0l6.4-7.223a.98.98 0 0 0 0-1.244.69.69 0 0 0-1.074 0l-5.86 6.603L1.286 3.86a.688.688 0 0 0-1.074 0 .952.952 0 0 0-.22.624z"/></symbol><symbol viewBox="0 0 20 16" id="ui-check"><path d="M0 7.96a1.67 1.67 0 0 0 .4 1.1L6 15.53a1.27 1.27 0 0 0 1.96 0L19.6 2.65a1.72 1.72 0 0 0 0-2.2 1.27 1.27 0 0 0-1.95-.02L7 12.2 2.33 6.84a1.27 1.27 0 0 0-1.95 0A1.68 1.68 0 0 0 0 7.97z"/></symbol><symbol viewBox="0 0 47 47" id="ui-circled-check"><path d="M14 23.95a1.67 1.67 0 0 0 .4 1.12l5.6 6.45a1.27 1.27 0 0 0 1.96 0L33.6 18.65a1.72 1.72 0 0 0 0-2.2 1.27 1.27 0 0 0-1.95-.02L21 28.2l-4.66-5.36a1.27 1.27 0 0 0-1.95 0 1.67 1.67 0 0 0-.4 1.12zM23.5 0A23.5 23.5 0 1 1 0 23.5 23.5 23.5 0 0 1 23.5 0z"/></symbol><symbol viewBox="0 0 38 35" id="ui-click_collect-lg"><path d="M21.28 35c-4.66 0-7.6-4.57-7.6-4.57a6.57 6.57 0 0 1-5.64 3.1 8.03 8.03 0 0 1-8.04-8 14.35 14.35 0 0 1 2.88-8.03C2.88 5.54 10.78 0 20.46 0A17.52 17.52 0 0 1 38 17.5C38 27.16 31 35 21.28 35zm9.36-7.66h1.52V19.6h-1.52v7.74zM14.06 8.4H8.54v1.27h2v6h1.54v-6h1.98V8.4zM11.7 20.4l-1.47 2.9-4.38-2.9-1.46 1.45 2.9 2.92-1.45 2.9 8.77 1.47zm4.9-10.32h-1.54v5.57h1.53V10.1zm.38 13.6a4.03 4.03 0 0 0 .87 2.77 3.22 3.22 0 0 0 2.52.97 8.63 8.63 0 0 0 1.28-.1 8.2 8.2 0 0 0 1.32-.3v-3.8h-2.9v1.3h1.4v1.52a5.03 5.03 0 0 1-1 .1 1.7 1.7 0 0 1-1.4-.63 2.9 2.9 0 0 1-.5-1.8 2.6 2.6 0 0 1 .6-1.82 2.06 2.06 0 0 1 1.6-.66 3.68 3.68 0 0 1 1.67.4l.52-1.24a5.43 5.43 0 0 0-2.17-.45 3.85 3.85 0 0 0-2.8 1 3.67 3.67 0 0 0-1.02 2.74zm6.6-13.6h-1.7l-1.57 1.7-.65.85h-.02l.08-1.27V7.92H18.2v7.75h1.53v-1.73l.66-.52 1.6 2.25h1.77l-2.35-3.15zm2.47-2.18h-1.52v7.75h1.52V7.92zm-1.1 14.5a3.1 3.1 0 0 0-.7 2.17 2.8 2.8 0 0 0 .76 2.1 2.9 2.9 0 0 0 2.12.74 5.37 5.37 0 0 0 1.1-.1 3.6 3.6 0 0 0 .86-.3v-1.17a4.72 4.72 0 0 1-.94.33 4.17 4.17 0 0 1-.95.1 1.36 1.36 0 0 1-1.02-.36 1.46 1.46 0 0 1-.38-1h3.6v-.74a2.54 2.54 0 0 0-.66-1.86 2.46 2.46 0 0 0-1.85-.67 2.5 2.5 0 0 0-1.95.76zm7.3-10.46a1.8 1.8 0 0 0-.6-1.5 2.67 2.67 0 0 0-1.7-.47 4.55 4.55 0 0 0-2.15.5l.5 1a3.98 3.98 0 0 1 1.57-.4.76.76 0 0 1 .87.86v.24l-.97.03a3.6 3.6 0 0 0-1.87.47 1.47 1.47 0 0 0-.62 1.3 1.76 1.76 0 0 0 .46 1.3 1.72 1.72 0 0 0 1.27.47 2.58 2.58 0 0 0 1.07-.18 2.27 2.27 0 0 0 .8-.68h.03l.3.75h1.06v-3.7zm-2.67 2.7a.61.61 0 0 1-.74-.64.75.75 0 0 1 .33-.67 1.9 1.9 0 0 1 1-.24h.58v.45a1.06 1.06 0 0 1-.32.8 1.17 1.17 0 0 1-.85.3zm-3.44 8.4a.97.97 0 0 1 .76-.32 1 1 0 0 1 .77.3 1.27 1.27 0 0 1 .3.88h-2.14a1.42 1.42 0 0 1 .32-.87z"/></symbol><symbol viewBox="0 0 28 28" id="ui-click_collect-md"><path fill-rule="evenodd" d="M10.04 7.07L12 7V6H8v1h1v3.94h1.04V7.07zM13 8h-1v3h1V8zm2.04 1.05l.06-.82V6H14v5h1v-1h1l1 1h1l-1.7-2.03L17 8l-1-1-.47 1.5-.48.55zM20.02 6h-1v5h1V6zM24 10.93V8.35a1.35 1.35 0 0 0-.38-1.03 1.45 1.45 0 0 0-1.03-.34 2.43 2.43 0 0 0-1.3.35l.3.7a2.12 2.12 0 0 1 .9-.27.5.5 0 0 1 .5.6v.16l-.6.02a1.94 1.94 0 0 0-1.14.33 1.08 1.08 0 0 0-.37.9 1.34 1.34 0 0 0 .3.9.95.95 0 0 0 .75.33 1.35 1.35 0 0 0 .64-.13 1.42 1.42 0 0 0 .47-.47l.2.53h.7zm-.93-1.47a.8.8 0 0 1-.2.56.65.65 0 0 1-.5.2.4.4 0 0 1-.44-.44.55.55 0 0 1 .2-.46 1 1 0 0 1 .6-.17h.34v.3zm-8 7.6H16v1a3.38 3.38 0 0 1-.66.07 1.13 1.13 0 0 1-.95-.4 1.92 1.92 0 0 1-.4-1.23 1.73 1.73 0 0 1 .4-1.2 1.38 1.38 0 0 1 1.02-.4 2.48 2.48 0 0 1 1.12.28l.33-.82a3.66 3.66 0 0 0-1.46-.3 2.58 2.58 0 0 0-1.85.66 2.43 2.43 0 0 0-.65 1.8 2.67 2.67 0 0 0 .58 1.86 2.16 2.16 0 0 0 1.7.64 5.83 5.83 0 0 0 .85-.1 5.5 5.5 0 0 0 .87-.2v-2.5H15v.85zm5.6-1.1a.8.8 0 0 1 .22.6h-1.7a.9.9 0 0 1 .2-.6.8.8 0 0 1 .6-.2.83.83 0 0 1 .6.2zm.42 2.96a3.03 3.03 0 0 0 .6-.2v-.8a4.05 4.05 0 0 1-.78.22 3.67 3.67 0 0 1-.74.07 1.14 1.14 0 0 1-.8-.2.94.94 0 0 1-.3-.7H22v-.5a1.64 1.64 0 0 0-.5-1.3 2.06 2.06 0 0 0-1.44-.4 2.08 2.08 0 0 0-1.5.5 1.97 1.97 0 0 0-.55 1.5 1.8 1.8 0 0 0 .6 1.47 2.42 2.42 0 0 0 1.7.5 4.72 4.72 0 0 0 .9-.07zM24 14h-1v5h1v-5zM6.85 19.46L9 18l1 6-6-2 1.96-1.6L4 19l1.08-1.3zM5.1 13.6c-2.63 0-5.1 4.17-5.1 7.2C0 24.62 3.4 28 6.77 28c4.75 0 7.6-5.1 7.6-5.1a1.23 1.23 0 0 0 1.4.86c7.96 0 12.22-5.9 12.22-11.88A11.96 11.96 0 0 0 15.9 0C10.2 0 4.22 3.48 4.22 11.03c0 2.4.96 2.56.86 2.56z"/></symbol><symbol viewBox="0 0 24 23" id="ui-click_collect-sm"><path fill-rule="evenodd" d="M9 6h1V5H7v.8L8 6v3h1V6zm2 .02h-1v3h1v-3zm1.9 1.4l.04-.66V4.93H12v4.1h.86v-.8h.86l.85.8h.86l-1.46-1.66L15 7l-1-1-.7.98-.4.45zM17 5h-.98v4H17V5zm4 3.95V7.02a.88.88 0 0 0-.36-.78A1.78 1.78 0 0 0 19.6 6a3.08 3.08 0 0 0-1.28.25l.3.54a2.7 2.7 0 0 1 .94-.3.43.43 0 0 1 .52.4V7h-.58a2.43 2.43 0 0 0-1.12.25.73.73 0 0 0-.38.7.85.85 0 0 0 .3.7 1.13 1.13 0 0 0 .8.22 1.75 1.75 0 0 0 .64-.1 1.32 1.32 0 0 0 .47-.37l.2.4h.6zm-.9-1.1a.52.52 0 0 1-.2.42.77.77 0 0 1-.5.16q-.45 0-.45-.34a.38.38 0 0 1 .2-.4 1.28 1.28 0 0 1 .6-.1h.34v.2zm-7.05 6.22h.93v1a3.35 3.35 0 0 1-.66.08 1.13 1.13 0 0 1-.95-.42 1.94 1.94 0 0 1-.32-1.2 1.74 1.74 0 0 1 .4-1.22 1.37 1.37 0 0 1 1.08-.4 2.46 2.46 0 0 1 1.1.3l.35-.8a3.63 3.63 0 0 0-1.45-.3 2.57 2.57 0 0 0-1.87.7 2.45 2.45 0 0 0-.68 1.84 2.7 2.7 0 0 0 .6 1.87 2.15 2.15 0 0 0 1.67.66 5.8 5.8 0 0 0 .85-.06 5.46 5.46 0 0 0 .9-.2v-2.6h-1.95v.84zm4.94-1.1a1 1 0 0 1 .1.6h-1.2a1.1 1.1 0 0 1 .2-.6.52.52 0 0 1 .4-.23.54.54 0 0 1 .4.22zm.3 2.97a1.87 1.87 0 0 0 .5-.2v-.82a2.5 2.5 0 0 1-.6.23 2.06 2.06 0 0 1-.6.07.72.72 0 0 1-.6-.25 1.13 1.13 0 0 1-.2-.7H19v-.52a1.98 1.98 0 0 0-.4-1.3 1.3 1.3 0 0 0-1.06-.46 1.34 1.34 0 0 0-1.13.5A2.43 2.43 0 0 0 16 14a2.2 2.2 0 0 0 .45 1.48 1.53 1.53 0 0 0 1.23.5 2.64 2.64 0 0 0 .64-.06zM21 12h-1v4h.98v-4zM5.84 15.7L8 14.3 9 20l-6-1.9 1.96-1.53L3 15.25 4.06 14zm-1.48-4.54C2.12 11.16 0 14.6 0 17.1A6.2 6.2 0 0 0 5.82 23c4.07 0 6.5-4.18 6.5-4.18a1.05 1.05 0 0 0 1.2.7c6.83 0 10.48-4.85 10.48-9.76A10.05 10.05 0 0 0 13.7 0C8.75 0 3.63 2.86 3.63 9.06c0 1.98.8 2.1.72 2.1z"/></symbol><symbol viewBox="0 0 20 20" id="ui-close_circled"><path d="M9.5 18C4.8 18 1 14.2 1 9.5S4.8 1 9.5 1 18 4.8 18 9.5 14.2 18 9.5 18zm3.78-10.77l-1.5-1.5L9.5 7.98 7.23 5.7l-1.5 1.5 2.25 2.3-2.28 2.27 1.5 1.5L9.48 11l2.27 2.3 1.5-1.5L11 9.5l2.27-2.26z"/></symbol><symbol viewBox="0 0 16 16" id="ui-close-lg"><path d="M16 14l-2 2-6-6-6 6-2-2 6-6-6-6 2-2 6 6 6-6 2 2-6 6z"/></symbol><symbol viewBox="0 0 12 12" id="ui-close-md"><path d="M10.4 0L12 2 7.8 6.2l4.4 4.3-1.4 1.5-4.4-4.3L1.8 12 0 10.4 4.6 6 0 1.4 1.7 0 6 4.5z"/></symbol><symbol viewBox="0 0 7 7" id="ui-close-sm"><path d="M7 6L6 7 3.6 4.4 1 7 0 6l2.6-2.5L0 1l1-1 2.5 2.6L6 0l1 1-2.6 2.5z"/></symbol><symbol viewBox="0 0 20 18" id="ui-comment"><path d="M9 4h2v2h2v2h-2v2H9V8H7V6h2V4zM2 0C.38 0 0 .3 0 2v10c0 1.7.38 2 2 2h8l6 4v-4h2c1.62 0 2-.3 2-2V2c0-1.7-.38-2-2-2H2z"/></symbol><symbol viewBox="0 0 19 13" id="ui-contact-md"><path d="M18.5 13H.5a.6.6 0 0 1-.5-.6V1.6l8.7 7.8a1 1 0 0 0 1.6 0L19 1.6v10.8a.6.6 0 0 1-.5.6zM.5 0h18l-9 8z"/></symbol><symbol viewBox="0 0 12 8" id="ui-contact-xs"><path d="M11.655 7.997h-11.311c-.19 0-.344-.156-.344-.349v-6.68l5.495 4.792c.137.133.316.205.505.205s.368-.072.505-.204l5.495-4.791v6.678c0 .193-.155.349-.345.349zm-11.31-7.997h11.311l-5.656 4.932-5.655-4.932z"/></symbol><symbol viewBox="0 0 32 32" id="ui-copy"><path d="M21.333 1.333h-16A2.666 2.666 0 002.666 4v18.667h2.667V4h16V1.333zm4 5.334H10.666a2.666 2.666 0 00-2.667 2.667v18.667a2.666 2.666 0 002.667 2.667h14.667A2.666 2.666 0 0028 28.001V9.334a2.666 2.666 0 00-2.667-2.667zm0 21.333H10.666V9.333h14.667V28z"/></symbol><symbol viewBox="0 0 60 47" id="ui-credit_card-lg"><path d="M54 0H6A5.9 5.9 0 0 0 .03 5.88L0 41.12A5.92 5.92 0 0 0 6 47h48a5.92 5.92 0 0 0 6-5.88V5.88A5.92 5.92 0 0 0 54 0zm0 41.13H6V24h48v17.13zM54 12H6V6h48v6z"/></symbol><symbol viewBox="0 0 14 11" id="ui-credit_card-sm"><path fill-rule="evenodd" d="M2 2h10v7H2V2zM1 0h12a1 1 0 0 1 1 1v9a1 1 0 0 1-1 1H1a1 1 0 0 1-1-1V1a1 1 0 0 1 1-1zm1 3h10v2H2V3z"/></symbol><symbol viewBox="0 0 60 48" id="ui-email-lg"><path d="M56 48H4a4 4 0 0 1-4-4V4a4 4 0 0 1 4-4h52a4 4 0 0 1 4 4v40a4 4 0 0 1-4 4zM54 6L30 21 6 6v6l24 15 24-15V6z"/></symbol><symbol viewBox="0 0 52 52" id="ui-es-search"><path fill-rule="evenodd" d="M19.7 0A19.7 19.7 0 1 1 0 19.7 19.7 19.7 0 0 1 19.7 0zm0 5.63A14.08 14.08 0 1 1 5.64 19.7 14.02 14.02 0 0 1 19.7 5.64zM52 47.8L47.8 52 35.1 39.3v-2.6l-3.02-1.6 3.03-3.03L36.64 35h2.68z"/></symbol><symbol viewBox="0 0 17 32" id="ui-facebook-f"><path d="M13.488 5.313H16.5V.225C15.981.156 14.194 0 12.113 0 7.769 0 4.794 2.65 4.794 7.519V12H0v5.688h4.794v14.313h5.875V17.688h4.6L16 12h-5.331V8.081c0-1.644.456-2.769 2.819-2.769z"/></symbol><symbol viewBox="0 0 19 17" id="ui-facebook"><path d="M7 4v2l-2-.03V9h2v8h3V9h2.28A6.63 6.63 0 0 0 13 5.95L10 6V4a1.45 1.45 0 0 1 1-1h2V0H10.4C6.65 0 7 3.55 7 4z"/></symbol><symbol viewBox="0 0 37 34" id="ui-faq_click_collect"><path d="M20.72 34c-4.54 0-7.4-4.43-7.4-4.43a6.4 6.4 0 0 1-5.5 3A7.8 7.8 0 0 1 0 24.8 13.92 13.92 0 0 1 2.8 17c0-11.62 7.7-17 17.12-17A17.04 17.04 0 0 1 37 17c0 9.4-6.8 17-16.28 17zm9.1-7.44h1.5v-7.53h-1.5v7.53zM13.7 8.16H8.3V9.4h1.93v5.83h1.5V9.4h1.94V8.15zm-2.3 11.68l-1.44 2.83-4.27-2.83-1.44 1.4 2.85 2.84-1.42 2.84 8.53 1.4zm4.75-10.02h-1.48v5.4h1.48v-5.4zm.4 13.2a3.9 3.9 0 0 0 .84 2.7 3.14 3.14 0 0 0 2.43.94 8.4 8.4 0 0 0 1.24-.1 8 8 0 0 0 1.3-.3V22.6h-2.83v1.24h1.35v1.47a4.9 4.9 0 0 1-.97.1 1.64 1.64 0 0 1-1.38-.6 2.8 2.8 0 0 1-.48-1.74 2.53 2.53 0 0 1 .6-1.76 2 2 0 0 1 1.56-.67 3.6 3.6 0 0 1 1.62.4l.5-1.2a5.3 5.3 0 0 0-2.1-.45 3.75 3.75 0 0 0-2.74.96 3.56 3.56 0 0 0-1 2.67zm6.43-13.2H21.3l-1.52 1.64-.65.82h-.02l.1-1.23V7.7h-1.5v7.53h1.5v-1.7l.64-.5 1.56 2.2h1.7l-2.28-3.06zm2.4-2.12h-1.5v7.53h1.5V7.7zM24.3 21.8a3 3 0 0 0-.68 2.1 2.72 2.72 0 0 0 .74 2.04 2.8 2.8 0 0 0 2.05.72 5.23 5.23 0 0 0 1.1-.1 3.5 3.5 0 0 0 .83-.28v-1.15a4.64 4.64 0 0 1-.9.33 4.08 4.08 0 0 1-.94.1 1.32 1.32 0 0 1-1-.35 1.42 1.42 0 0 1-.37-.97h3.5v-.7A2.47 2.47 0 0 0 28 21.7a2.4 2.4 0 0 0-1.8-.65 2.44 2.44 0 0 0-1.88.74zm7.1-10.18a1.75 1.75 0 0 0-.57-1.44 2.6 2.6 0 0 0-1.68-.48 4.44 4.44 0 0 0-2.08.5l.5 1a3.88 3.88 0 0 1 1.52-.4.74.74 0 0 1 .83.82v.24l-.94.03a3.52 3.52 0 0 0-1.84.43 1.43 1.43 0 0 0-.6 1.27 1.7 1.7 0 0 0 .45 1.28 1.68 1.68 0 0 0 1.24.45 2.52 2.52 0 0 0 1.03-.18 2.2 2.2 0 0 0 .77-.66h.04l.27.72h1.04v-3.6zm-2.6 2.63a.6.6 0 0 1-.7-.63.73.73 0 0 1 .3-.65 1.85 1.85 0 0 1 .97-.23l.57-.02v.45a1.03 1.03 0 0 1-.3.78 1.14 1.14 0 0 1-.83.3zm-3.34 8.15a.94.94 0 0 1 .74-.3.97.97 0 0 1 .75.3 1.23 1.23 0 0 1 .28.84h-2.08a1.37 1.37 0 0 1 .3-.84z"/></symbol><symbol viewBox="0 0 28 34" id="ui-faq_kapida_odeme"><path d="M24.3 34V3.8H3.7l13 3.8V19a2 2 0 1 0-1.8 1.8 2 2 0 0 0 1.7-2v11.5L3.7 34H0V0h28v34h-3.7z"/></symbol><symbol viewBox="0 0 31 33" id="ui-faq_order"><path d="M0 33L4.08 9.9h4.08V6.6c0-3.65 3.7-6.6 7.3-6.6s7.38 2.96 7.38 6.6v3.3h4.08L31 33H0zM21.2 6.6c0-2.73-3.05-4.95-5.75-4.95S9.8 3.87 9.8 6.6v3.3h11.4V6.6zm4.1 4.95h-2.46v1.65H21.2v-1.65H9.8v1.65H8.15v-1.65H5.7l-3.25 19.8h26.1zm-1.64 3.3a1.63 1.63 0 1 1-1.63-1.65 1.64 1.64 0 0 1 1.63 1.65zm-13.06 0a1.63 1.63 0 1 1-1.63-1.65 1.64 1.64 0 0 1 1.63 1.65z"/></symbol><symbol viewBox="0 0 45 35" id="ui-faq_return_cancel"><path d="M36 18a9 9 0 0 1-1 0v17H2V12h25.5a9 9 0 0 1-.4-2H0V5h28a9 9 0 1 1 8 13zm-11-1H12v3h13v-3zM39.5 7L38 5.4l-2 2-2-2L32.4 7l2 2-2 2 1.4 1.5 2-2 2 2 1.5-1.4-2-2z"/></symbol><symbol viewBox="0 0 33 33" id="ui-faq_return_circled"><path d="M16.5 33A16.5 16.5 0 1 1 33 16.5 16.5 16.5 0 0 1 16.5 33zm1.95-20.32v-.05H13.6V9.7l-4.86 4.47 4.85 4.33v-2.95h3.87v.03a2.54 2.54 0 0 1 .35-.03h.25a2.42 2.42 0 1 1-.6 4.8v2.9c.16.02.3.05.47.05a5.32 5.32 0 0 0 .5-10.62z"/></symbol><symbol viewBox="0 0 9 16" id="ui-faq"><path d="M8.53 5.66A7.13 7.13 0 0 1 6.67 7.5a5.87 5.87 0 0 0-1.2 1.1 1.78 1.78 0 0 0-.24 1l-.33.4h-2l-.25-.54a3.5 3.5 0 0 1 .4-1.7A5.4 5.4 0 0 1 4.5 6.2a6.25 6.25 0 0 0 1.37-1.25 1.87 1.87 0 0 0 .32-1.08 1.2 1.2 0 0 0-.5-1 2.15 2.15 0 0 0-1.3-.36 7.25 7.25 0 0 0-3.34 1L0 1.3A8.97 8.97 0 0 1 4.64 0a4.75 4.75 0 0 1 3.2 1 3.38 3.38 0 0 1 1.2 2.7 3.74 3.74 0 0 1-.5 1.96zM3.9 11.88a2.06 2.06 0 0 1 0 4.12 2.06 2.06 0 0 1 0-4.12z"/></symbol><symbol viewBox="0 0 9.986 5.002" id="ui-fast_delivery"><path d="M6 5V4h4v1H6zM3 2h7v1H3V2zM0 0h10v1H0V0z" clip-rule="evenodd"/></symbol><symbol viewBox="0 0 24 24" id="ui-favourite_border"><path d="M16.5 3c-1.74 0-3.41.81-4.5 2.09C10.91 3.81 9.24 3 7.5 3 4.42 3 2 5.42 2 8.5c0 3.78 3.4 6.86 8.55 11.54L12 21.35l1.45-1.32C18.6 15.36 22 12.28 22 8.5 22 5.42 19.58 3 16.5 3zm-4.4 15.55l-.1.1-.1-.1C7.14 14.24 4 11.39 4 8.5 4 6.5 5.5 5 7.5 5c1.54 0 3.04.99 3.57 2.36h1.87C13.46 5.99 14.96 5 16.5 5c2 0 3.5 1.5 3.5 3.5 0 2.89-3.14 5.74-7.9 10.05z"/></symbol><symbol viewBox="0 0 24 24" id="ui-favourite"><path d="M12 21.35l-1.45-1.32C5.4 15.36 2 12.28 2 8.5 2 5.42 4.42 3 7.5 3c1.74 0 3.41.81 4.5 2.09C13.09 3.81 14.76 3 16.5 3 19.58 3 22 5.42 22 8.5c0 3.78-3.4 6.86-8.55 11.54L12 21.35z"/></symbol><symbol viewBox="0 0 24 24" id="ui-filter"><path d="M10 18h4v-2h-4v2zM3 6v2h18V6H3zm3 7h12v-2H6v2z"/><path d="M0 0h24v24H0z" fill="none"/></symbol><symbol viewBox="0 0 57 57" id="ui-giftcard-lg"><path d="M52 34.4l3-3.2q.3 0 .4-.2a2.5 2.5 0 0 0 .4-.6 6.3 6.3 0 0 0 1.2-3.7V6.5A6.5 6.5 0 0 0 50.5 0H30.3a6.4 6.4 0 0 0-4 1.4 6.6 6.6 0 0 0-1 1L23 4.7a6.8 6.8 0 0 0-.7.5l-10 10-9 9-2 2a4.4 4.4 0 0 0 0 6.2l2 2.2 19 18.8 2.2 2.2a4.4 4.4 0 0 0 6 0l2.3-2.2 9-8.8 10-10s0-.2.2-.3zM50.3 6.7a5 5 0 0 1 0 7.2 5.3 5.3 0 0 1-7.4 0 5 5 0 0 1 0-7.4 5.4 5.4 0 0 1 7.2 0z"/></symbol><symbol viewBox="0 0 20 20" id="ui-giftcard-md"><path d="M19.6 9.15l-.04.05a2 2 0 0 1-.24.25l-.75.74-.16.14-3 3-5.6 5.6-.64.65a1.3 1.3 0 0 1-1.85 0l-.64-.65L1 13.32l-.66-.64a1.3 1.3 0 0 1 0-1.86l.65-.65 5.6-5.6 3-3a1.24 1.24 0 0 1 .1-.08l.93-.97.07-.08a.77.77 0 0 1 .2-.13A1.9 1.9 0 0 1 12 0h6.06A1.93 1.93 0 0 1 20 1.93v6.05a1.9 1.9 0 0 1-.4 1.17zm-4.86-6a2.1 2.1 0 1 0 2.1 2.1 2.1 2.1 0 0 0-2.1-2.1z"/></symbol><symbol viewBox="0 0 12 12" id="ui-giftcard-sm"><path d="M11.76 5.5s-.02 0-.03.02a1.2 1.2 0 0 1-.15.15l-.44.45-.1.1-1.8 1.8-3.37 3.36-.4.4a.8.8 0 0 1-1.1 0l-.4-.4L.6 8l-.4-.4a.78.78 0 0 1 0-1.1l.4-.4 3.36-3.35 1.8-1.8A.74.74 0 0 1 5.82.9L6.4.33 6.42.3V.27a.46.46 0 0 1 .1-.07A1.14 1.14 0 0 1 7.2 0h3.64A1.16 1.16 0 0 1 12 1.16V4.8a1.14 1.14 0 0 1-.24.7zM8.84 1.9a1.26 1.26 0 1 0 1.26 1.26A1.26 1.26 0 0 0 8.84 1.9z"/></symbol><symbol viewBox="0 0 19 17" id="ui-googleplus"><path d="M6.67 0a10.26 10.26 0 0 0-2.04.23 4.87 4.87 0 0 0-2.04 1 4.1 4.1 0 0 0-1.1 1.42 3.66 3.66 0 0 0-.36 1.57 3.56 3.56 0 0 0 .25 1.3 3.38 3.38 0 0 0 .7 1.1 3.76 3.76 0 0 0 1.2.8 4.2 4.2 0 0 0 1.6.3h.37l.37-.05a4.34 4.34 0 0 0-.16.4 1.34 1.34 0 0 0-.07.47 1.7 1.7 0 0 0 .22.87q.23.34.48.65l-.92.08s-.72.08-1.1.15-.8.17-1.22.3a5.85 5.85 0 0 0-1.1.5 3.24 3.24 0 0 0-1.38 1.35A3.17 3.17 0 0 0 0 13.8 2.5 2.5 0 0 0 .3 15a2.88 2.88 0 0 0 .9 1 4.97 4.97 0 0 0 1.53.73A7.87 7.87 0 0 0 4.9 17a7.97 7.97 0 0 0 2.56-.38 5.76 5.76 0 0 0 1.9-.96 3.97 3.97 0 0 0 1.13-1.34 3.35 3.35 0 0 0 .38-1.53 3.06 3.06 0 0 0-.17-1.04 2.96 2.96 0 0 0-.42-.8 3.67 3.67 0 0 0-.62-.67c-.22-.23-.46-.43-.7-.64l-.82-.62c-.12-.1-.25-.23-.38-.37a.85.85 0 0 1-.2-.6.94.94 0 0 1 .2-.62c.13-.16.27-.32.43-.47.23-.18.47-.36.7-.56a5.16 5.16 0 0 0 .6-.67 3.2 3.2 0 0 0 .44-.84 3.4 3.4 0 0 0 .16-1.08 3.2 3.2 0 0 0-.18-1.12 3.77 3.77 0 0 0-.44-.85 3.23 3.23 0 0 0-.52-.62A5.8 5.8 0 0 0 8.48.8h1.4l1.47-.8H6.67zM5.23.74a1.9 1.9 0 0 1 1.23.43 3.32 3.32 0 0 1 .9 1 5.23 5.23 0 0 1 .55 1.36 5.33 5.33 0 0 1 .2 1.3 4.3 4.3 0 0 1-.1.8 1.62 1.62 0 0 1-.48.84 2.2 2.2 0 0 1-.7.45 2.16 2.16 0 0 1-2.1-.23 3.9 3.9 0 0 1-.9-1.04 5.3 5.3 0 0 1-.52-1.28 5.7 5.7 0 0 1-.17-1.26 4.08 4.08 0 0 1 .1-.86 2.05 2.05 0 0 1 .4-.8 1.93 1.93 0 0 1 .7-.52 2.1 2.1 0 0 1 .9-.2zm.8 9.95h.6a1.35 1.35 0 0 1 .23 0l1.12.8a5.18 5.18 0 0 1 .77.7 2.43 2.43 0 0 1 .44.67 1.87 1.87 0 0 1 .15.78 2.08 2.08 0 0 1-.87 1.7 3.82 3.82 0 0 1-2.47.7 5.08 5.08 0 0 1-2.93-.75A2.3 2.3 0 0 1 2 13.34a2 2 0 0 1 .22-1 2.8 2.8 0 0 1 .57-.67 3.12 3.12 0 0 1 .63-.43c.23-.1.4-.15.53-.2l.75-.2c.27-.04.5-.08.73-.1l.6-.05zM14 1h1v5h-1V1zm-2 2h5v1h-5V3z"/></symbol><symbol viewBox="0 0 29 24" id="ui-hamburger"><path d="M28.64 22.77a2.3 2.3 0 0 1-1.02.92 3.65 3.65 0 0 1-1.6.3 3.02 3.02 0 0 1-2.13-.7 2.52 2.52 0 0 1-.8-2v-4.6h1.5v4.4a1.84 1.84 0 0 0 .3 1.2 1.38 1.38 0 0 0 1.1.4 1.35 1.35 0 0 0 1.1-.4 1.85 1.85 0 0 0 .3-1.2v-4.4h1.5v4.62a2.7 2.7 0 0 1-.34 1.4zM27.04 16a.76.76 0 0 1-.48-.15.6.6 0 0 1-.2-.5.6.6 0 0 1 .2-.5.76.76 0 0 1 .5-.15.7.7 0 0 1 .5.18.63.63 0 0 1 .2.48.62.62 0 0 1-.2.48.7.7 0 0 1-.5.17zm-1.97 0a.7.7 0 0 1-.5-.16.63.63 0 0 1-.18-.48.64.64 0 0 1 .1-.5.7.7 0 0 1 .5-.17.7.7 0 0 1 .5.1.65.65 0 0 1 .2.5.63.63 0 0 1-.2.45.7.7 0 0 1-.5.2zM3.1 10.06h21.02v1H3.1v-1zm0-5.02h21.02v1H3.1v-1zM3.1 0h21.02v1H3.1V0zm.68 22.22l1.8-5.48h2.05v7.17h-1.4v-3.4q0-.2 0-.5t.06-1.62h-.1L4.4 23.9H3.03L1.3 18.3h-.05q.1 1.72.1 2.3v3.33H0v-7.16h2.06l1.7 5.5h.02zm9.77-4.24h-2.6v1.58h2.42v1.25h-2.42v1.9h2.6V24H9.43v-7.2h4.12V18zm6.5 4.13h.04q-.1-1.4-.1-1.9v-3.4h1.3V24h-1.9l-3.1-5.42h-.06q.1 1.45.1 2.06V24H15v-7.2h1.9z"/></symbol><symbol viewBox="0 0 19 19" id="ui-happy"><path d="M9.5 19A9.5 9.5 0 1 1 19 9.5 9.5 9.5 0 0 1 9.5 19zm0-18A8.5 8.5 0 1 0 18 9.5 8.5 8.5 0 0 0 9.5 1zm0 15C6.96 16 4 13.88 4 11h11c0 2.9-3.02 5-5.5 5zM12 8a1 1 0 1 1 1-1 1 1 0 0 1-1 1zM7 8a1 1 0 1 1 1-1 1 1 0 0 1-1 1z"/></symbol><symbol viewBox="0 0 20 13" id="ui-home_arrow"><path d="M20 11.08a2 2 0 0 0-.5-1.35L11.2.56a1.6 1.6 0 0 0-2.4 0L.5 9.73a2.06 2.06 0 0 0 0 2.7 1.6 1.6 0 0 0 2.42 0L10 4.63l7.1 7.82a1.6 1.6 0 0 0 2.4 0 2.02 2.02 0 0 0 .5-1.35z"/></symbol><symbol viewBox="0 0 19 17" id="ui-instagram"><path d="M4.46 1A2.43 2.43 0 0 0 2 3.4v10.17A2.43 2.43 0 0 0 4.46 16h10.08A2.43 2.43 0 0 0 17 13.56V3.4A2.43 2.43 0 0 0 14.54 1H4.46zm8.03 2h2a.5.5 0 0 1 .5.48V5.5a.5.5 0 0 1-.5.5h-2a.5.5 0 0 1-.5-.5V3.48a.5.5 0 0 1 .5-.5zm-3 3A2.5 2.5 0 1 1 7 8.5 2.5 2.5 0 0 1 9.5 6zM4 7h1a12.08 12.08 0 0 0 0 2c0 2.4 2.08 4 4.5 4S14 11.4 14 9a12.1 12.1 0 0 0 0-2h1v6c0 .9-.1 1-1 1H5c-.92 0-1-.1-1-1V7z"/></symbol><symbol viewBox="0 0 15 19" id="ui-invoice"><path fill-rule="evenodd" d="M1 0h8l6 6v12a1 1 0 0 1-1 1H1a1 1 0 0 1-1-1V1a1 1 0 0 1 1-1zm3 9h7v2H4V9zm0 4h7v2H4v-2zm9-7H8V1"/></symbol><symbol viewBox="0 0 19 17" id="ui-ios"><path d="M14.73 9a3.85 3.85 0 0 1 1.87-3.24 4.07 4.07 0 0 0-3.17-1.7c-1.35-.12-2.63.8-3.32.8s-1.73-.77-2.85-.75a4.25 4.25 0 0 0-3.58 2.15c-1.53 2.6-.4 6.47 1.1 8.6.73 1.03 1.6 2.2 2.74 2.15 1.1-.04 1.52-.7 2.85-.7s1.7.7 2.86.68c1.2-.03 1.94-1.06 2.66-2.1a9.33 9.33 0 0 0 1.2-2.42A3.78 3.78 0 0 1 14.73 9zm-2.18-6.33a3.72 3.72 0 0 0 .9-2.72 3.9 3.9 0 0 0-2.55 1.3 3.54 3.54 0 0 0-.92 2.63 3.24 3.24 0 0 0 2.57-1.2z"/></symbol><symbol viewBox="0 0 15 18" id="ui-kapida_odeme-sm"><path d="M13 18V2H2l7 2v6a1 1 0 1 0-1 1 1 1 0 0 0 1-1v6.03L2 18H0V0h15v18h-2z"/></symbol><symbol viewBox="0 0 24 24" id="ui-kapida-odeme"><path d="M12 0a12 12 0 1 0 12 12A12 12 0 0 0 12 0zm-.9 3.3c.1-.1.2-.2.3-.2l1.8.2a1.69 1.69 0 0 1 1-.3 1.27 1.27 0 0 1 .6.1 1.65 1.65 0 0 1 1 1 2.57 2.57 0 0 1 .1 1.5 1.9 1.9 0 0 1-1.7 1.3 1.27 1.27 0 0 1-.6-.1 1.65 1.65 0 0 1-1-1 3.59 3.59 0 0 1-.2-1.1l-.6-.1a.66.66 0 0 1-.5-.4l-.3-.5c0-.2 0-.3.1-.4zM6.2 9.8a.4.4 0 0 1-.2-.4l.2-1.8a.65.65 0 0 1 .6-.6h3.6a.52.52 0 0 1 .4.2.76.76 0 0 1 .2.4l-.2 1.8a.65.65 0 0 1-.6.6H6.6a.52.52 0 0 1-.4-.2zm10.7 9.7a1.38 1.38 0 0 1-.4.3l-.4.1h-.2a.84.84 0 0 1-.7-.4l-1-2a2.61 2.61 0 0 1-.3-.8l-.6-2.3-1.3 2c-.1.2-.2.5-.3.7l-.3 2.3c0 .3-.4.6-.7.6h-.4c-.2 0-.3-.1-.5-.2a.76.76 0 0 1-.2-.4l.3-2.7a2.92 2.92 0 0 1 .2-.9l1.3-3.1V12l-2.9-.1a.52.52 0 0 1-.4-.2.75.75 0 0 1-.1-.5.65.65 0 0 1 .6-.6h2.2c.1 0 .3-.1.3-.2l1-2.9c0-.1.1-.5.7-.5l2.1.1a.53.53 0 0 1 .6.6v6.6l.1 1.6a1.45 1.45 0 0 0 .2.7l1.1 2.3q.15.45 0 .6z" fill="#7a4792"/></symbol><symbol viewBox="0 0 31 23" id="ui-kelebek"><path d="M28.93 0c-6.46-.06-11.4 7.52-12.88 10.07a4.53 4.53 0 0 0-.1-.7.6.6 0 0 0 .2-.43.6.6 0 0 0-.02-.1.27.27 0 0 0 .07-.2.27.27 0 0 0-.4-.23.6.6 0 0 0-.6 0 .28.28 0 0 0-.1 0 .27.27 0 0 0-.28.28.26.26 0 0 0 .07.17.6.6 0 0 0 .15.57 4.56 4.56 0 0 0-.1.68C13.5 7.53 8.55-.06 2.1 0-1.86-.03.84 3.95 1.9 6.57s.82 6.2 3.97 6.32a9.67 9.67 0 0 0 1.06-.07 4.62 4.62 0 0 0-1.37.75c-1.54 1.44 1.04 9.5 4.76 9.4 2.78-.06 4.16-5.8 4.7-8.67.1 1.1.28 1.86.5 1.86s.4-.77.5-1.87c.53 2.9 1.9 8.6 4.7 8.67 3.7.08 6.3-7.96 4.74-9.4a4.62 4.62 0 0 0-1.36-.74 9.67 9.67 0 0 0 1.06.03c3.15-.1 2.9-3.7 3.96-6.34s3.76-6.6-.2-6.57z"/></symbol><symbol viewBox="0 0 18 21" id="ui-local_mall-24px"><path d="M16 5h-2c0-2.8-2.2-5-5-5S4 2.2 4 5H2C.9 5 0 5.9 0 7v12c0 1.1.9 2 2 2h14c1.1 0 2-.9 2-2V7c0-1.1-.9-2-2-2zM9 2c1.7 0 3 1.3 3 3H6c0-1.7 1.3-3 3-3zm7 17H2V7h14v12z"/><path d="M9 13c2.8 0 5-2.2 5-5h-2c0 1.7-1.3 3-3 3S6 9.7 6 8H4c0 2.8 2.2 5 5 5z"/></symbol><symbol viewBox="0 0 41 57" id="ui-location_pin-lg"><path d="M20.5 57S0 32.4 0 20.9A20.7 20.7 0 0 1 20.5 0 20.7 20.7 0 0 1 41 20.9C41 32.4 20.5 57 20.5 57zm.02-44.8c-4.1 0-8.2 2.88-8.2 7.66a8.43 8.43 0 0 0 8.2 8.64 8.43 8.43 0 0 0 8.2-8.65c0-4.77-4.1-7.65-8.2-7.65z"/></symbol><symbol viewBox="0 0 10 14" id="ui-location_pin-xs"><path d="M5.001 13.994s-5.001-6.033-5.001-8.866c0-2.832 2.239-5.128 5.001-5.128 2.762 0 5.002 2.296 5.002 5.128 0 2.833-5.002 8.866-5.002 8.866zm.005-10.999c-1 0-1.996.707-1.996 1.88s.894 2.124 1.997 2.124c1.103 0 1.997-.95 1.997-2.124 0-1.173-.998-1.88-1.998-1.88z"/></symbol><symbol viewBox="0 0 18 18" id="ui-m-logo-new"><path d="M9 0C4 0 0 4 0 9s4 9 9 9 9-4 9-9-4-9-9-9zm5.5 12.2h-2V7c0-.8-.1-1.1-.8-1.1-.9 0-1.6.8-1.6 2v4.2H8V7c0-.8-.1-1.1-.8-1.1-.9 0-1.6.8-1.6 2v4.2h-2V5.4h1.9v1.5c.5-1 1.3-1.5 2.4-1.5C9 5.4 9.8 6 10 6.8c.5-.9 1.3-1.4 2.3-1.4 1.3 0 2.1.7 2.1 2v4.8z"/></symbol><symbol viewBox="0 0 13 12" id="ui-messages-xs"><path d="M5.517 0c-3.047 0-5.517 1.725-5.517 3.854l.01.239c.116 1.328 1.195 2.474 2.755 3.103.187 1.902-1.063 2.659-1.063 2.659 2.048-.414 3.405-1.326 4.26-2.159 2.838-.158 5.071-1.818 5.071-3.842 0-2.129-2.47-3.854-5.516-3.854zm6.274 3.592c.091.278.14.568.14.867 0 2.024-2.233 3.683-5.071 3.842-.419.407-.959.835-1.642 1.214.563.178 1.175.291 1.819.327.855.833 2.211 1.745 4.26 2.159 0 0-1.25-.757-1.063-2.66 1.653-.665 2.766-1.913 2.766-3.341 0-.911-.453-1.749-1.209-2.408z"/></symbol><symbol viewBox="0 0 13 1" id="ui-minus-md"><path d="M0 0v1h13v-1h-13z"/></symbol><symbol viewBox="0 0 9 1" id="ui-minus-sm"><path d="M9 0v1h-9v-1h9z"/></symbol><symbol viewBox="0 0 16 16" id="ui-morhipo-info"><path d="M7.2 12h1.6V7.2H7.2V12zM8 0C3.6 0 0 3.6 0 8s3.6 8 8 8 8-3.6 8-8-3.6-8-8-8zm0 14.4c-3.5 0-6.4-2.9-6.4-6.4S4.5 1.6 8 1.6s6.4 2.9 6.4 6.4-2.9 6.4-6.4 6.4zm-.8-8.8h1.6V4H7.2v1.6z"/></symbol><symbol viewBox="0 0 20 14" id="ui-multiple_user"><path d="M14.5 7C15.9 7 17 5.9 17 4.5S15.9 2 14.5 2 12 3.1 12 4.5 13.1 7 14.5 7zM7 6c1.7 0 3-1.3 3-3S8.7 0 7 0 4 1.3 4 3s1.3 3 3 3zm7.5 3C12.7 9 9 9.9 9 11.8V14h11v-2.2C20 9.9 16.3 9 14.5 9zM7 8c-2.3 0-7 1.2-7 3.5V14h7v-2.2c0-.9.3-2.3 2.4-3.5C8.5 8.1 7.7 8 7 8z"/></symbol><symbol viewBox="0 0 24 24" id="ui-new-truck"><path d="M20 8h-3V4H3c-1.1 0-2 .9-2 2v11h2c0 1.7 1.3 3 3 3s3-1.3 3-3h6c0 1.7 1.3 3 3 3s3-1.3 3-3h2v-5l-3-4zM6 18.5c-.8 0-1.5-.7-1.5-1.5s.7-1.5 1.5-1.5 1.5.7 1.5 1.5-.7 1.5-1.5 1.5zm12 0c-.8 0-1.5-.7-1.5-1.5s.7-1.5 1.5-1.5 1.5.7 1.5 1.5-.7 1.5-1.5 1.5zM17 12V9.5h2.5l2 2.5H17z"/></symbol><symbol viewBox="0 0 17 20" id="ui-notify"><path d="M8 20c1.1 0 2-.92 2-2.05H6C6 19.08 6.9 20 8 20zm6-6.16V8.7c0-3.14-1.64-5.78-4.5-6.47v-.7C9.5.68 8.83 0 8 0S6.5.67 6.5 1.52v.7C3.63 2.92 2 5.55 2 8.7v5.14L0 15.9v1.02h16V15.9l-2-2.06z"/></symbol><symbol viewBox="0 0 18 18" id="ui-open_new_tab"><path d="M16 10h2v8H0V0h8v2H2v14h14v-6m2 0V0v9l-4-3-4 4-2-2 4-4-3-4h9z"/></symbol><symbol viewBox="0 0 62 62" id="ui-order-lg"><path d="M33 38L23 16l14-6 4-1.8L50.4 4 62 34l-17.4 8C39.8 36.7 33 38 33 38zm-8 2L9.7 4H0V0h11.6L29 38zm8.7 0a11 11 0 0 1 0 22 11 11 0 0 1 0-22zm0 15a4 4 0 1 0-4-4 4 4 0 0 0 4 4zm26-17l2 4-15.5 6-2-4z"/></symbol><symbol viewBox="0 0 14 14" id="ui-order-xs"><path d="M7.437 8.58l-2.188-4.968 3.064-1.356-.002.002.893-.396 2.169-.959 2.625 6.774-3.937 1.807c-1.064-1.186-2.624-.904-2.624-.904zm-1.75.452l-3.5-8.129h-2.187v-.903h2.625l3.937 8.58-.875.452zm1.968 0c1.329 0 2.406 1.112 2.406 2.484 0 1.372-1.078 2.483-2.406 2.483s-2.406-1.112-2.406-2.483c0-1.372 1.078-2.484 2.406-2.484zm0 3.387c.483 0 .875-.404.875-.903s-.392-.904-.875-.904-.875.405-.875.904.392.903.875.903zm5.906-3.839l.438.904-3.5 1.354-.437-.904 3.499-1.354z"/></symbol><symbol viewBox="0 0 35 35" id="ui-original-lg"><path fill-rule="evenodd" d="M17.5 0A17.5 17.5 0 1 1 0 17.5 17.5 17.5 0 0 1 17.5 0zm6.67 25.8l-6.54-3.3L11.2 26l1.1-7.22L7 13.76l7.23-1.18L17.38 6l3.36 6.48 7.25.96-5.16 5.18z"/></symbol><symbol viewBox="0 0 15 20" id="ui-phone-sm"><path d="M14.97 17.4a1.4 1.4 0 0 0-.1-.83 23.1 23.1 0 0 0-2.38-2.3c-1-1.02-1.16-.84-1.4-.8s-1.5 1.23-2.06 1.56A.83.83 0 0 1 8.2 15c-3-2.13-4.42-7.3-4.42-7.3a.52.52 0 0 1 .2-.67A12.72 12.72 0 0 0 5.53 6c.85-.67-.02-4.35-.07-5.1S4.06.03 4.06.03C1.44-.32-.14 2.98 0 4.5c1.04 9.34 7.5 17.23 12.93 15.18a3.08 3.08 0 0 0 2.04-2.3z"/></symbol><symbol viewBox="0 0 35 30" id="ui-phonelink_ring"><path d="M2.5 8.9c-3.4 3.3-3.4 8.5 0 11.6l1.3-1.4c-2.4-2.6-2.4-6.4 0-8.9L2.5 8.9z"/><path d="M5.2 11.9c-1.6 1.8-1.6 4.2 0 5.9l1.3-1.4c-.7-1-.7-2.2 0-3.1l-1.3-1.4zM32.5 9.1l-1.3 1.4c2.4 2.5 2.4 6.3 0 8.9l1.3 1.4c3.3-3.2 3.3-8.4 0-11.7zM24.2 0H10.8C9.3 0 8.1 1.2 8.1 2.7v24.5c0 1.5 1.2 2.7 2.7 2.7h13.5c1.5 0 2.7-1.2 2.7-2.7V2.7C26.9 1.2 25.7 0 24.2 0zm0 25.9H10.8V4.1h13.5v21.8z"/><path d="M28.3 13.4c.7 1 .7 2.2 0 3.1l1.3 1.4c1.6-1.6 1.6-4.1 0-5.9l-1.3 1.4z"/></symbol><symbol viewBox="0 0 19 17" id="ui-pinterest"><path d="M9.9 0C5.3 0 3 3.32 3 6.1 3 7.78 3.65 9.27 5 9.83a.33.33 0 0 0 .48-.25l.2-.78a.48.48 0 0 0-.13-.54 2.84 2.84 0 0 1-.64-1.92 4.6 4.6 0 0 1 4.73-4.68c2.58 0 4 1.6 4 3.74 0 2.82-1.22 5.2-3.05 5.2a1.5 1.5 0 0 1-1.52-1.9 21.18 21.18 0 0 0 .85-3.45 1.3 1.3 0 0 0-1.3-1.47c-1.02 0-1.85 1.08-1.85 2.53a3.8 3.8 0 0 0 .3 1.55l-1.22 5.32a11.1 11.1 0 0 0-.03 3.7.13.13 0 0 0 .23.06 10.45 10.45 0 0 0 1.73-3.2c.12-.42.68-2.67.68-2.67a2.75 2.75 0 0 0 2.35 1.2c3.1 0 5.2-2.85 5.2-6.67A5.8 5.8 0 0 0 9.9 0z"/></symbol><symbol viewBox="0 0 13 13" id="ui-plus-md"><path d="M13 7h-6v6h-1v-6h-6v-1h6v-6h1v6h6v1z"/></symbol><symbol viewBox="0 0 9 9" id="ui-plus-sm"><path d="M9 5h-4v4h-1v-4h-4v-1h4v-4h1v4h4v1z"/></symbol><symbol viewBox="0 0 18 14" id="ui-replace"><path d="M7 3v2h7v3l4-4-4-4v3H7zm4 6v2H4v3l-4-4 4-4v3h7z"/></symbol><symbol viewBox="0 0 43 20" id="ui-return-lg"><path d="M0 0l7.6 8.23S12.4 2 23 2c10.73 0 17.26 10.08 20 16.3l-5.1 1.66S32.85 8 23 8c-8.52 0-11.5 4.37-11.5 4.37L18.63 20H0V0z"/></symbol><symbol viewBox="0 0 20 22" id="ui-return-sm"><path d="M0 7l3.54 3.3s2.12-2.4 7.06-2.4c5 0 8.13 3.94 9.4 6.42l-2.38.67s-2.44-4.85-7-4.85c-3.98 0-5.28 1.8-5.28 1.8L8.67 15H0V7z"/></symbol><symbol viewBox="0 0 12 10" id="ui-return-xs"><path d="M0 3.858l3.999 4.142 1.526-1.725-1.526-1.275h5c.52 0 1 .509 1 1v1c0 .492-.48 1-1 1h-3v2l2.959-.002c1.675 0 3.04-1.286 3.04-2.869v-1.391c0-1.582-1.324-2.738-2.999-2.738h-5l1.57-1.599-1.57-1.401-3.999 3.858z"/></symbol><symbol viewBox="0 0 22 16" id="ui-return"><path d="M18,4,14,8h3a6,6,0,0,1-6,6,5.87,5.87,0,0,1-2.8-.7L6.74,14.76A8,8,0,0,0,19,8h3ZM5,8a6,6,0,0,1,6-6,5.87,5.87,0,0,1,2.8.7l1.46-1.46A8,8,0,0,0,3,8H0l4,4L8,8Z"/></symbol><symbol viewBox="0 0 22 12" id="ui-ruler"><path class="cls-1" d="M20,0H2A2,2,0,0,0,0,2v8a2,2,0,0,0,2,2H20a2,2,0,0,0,2-2V2A2,2,0,0,0,20,0Zm0,10H2V2H4V7H6V2H8V5h2V2h2V7h2V2h2V5h2V2h2Z"/></symbol><symbol viewBox="0 0 20 20" id="ui-schedule"><path d="M10 0C4.5 0 0 4.5 0 10s4.5 10 10 10 10-4.5 10-10S15.5 0 10 0zm0 18c-4.4 0-8-3.6-8-8s3.6-8 8-8 8 3.6 8 8-3.6 8-8 8zm.5-13H9v6l5.2 3.1.8-1.2-4.5-2.7V5z"/></symbol><symbol viewBox="0 0 52 52" id="ui-search-lg"><path fill-rule="evenodd" d="M19.7 0A19.7 19.7 0 1 1 0 19.7 19.7 19.7 0 0 1 19.7 0zm0 5.63A14.08 14.08 0 1 1 5.64 19.7 14.02 14.02 0 0 1 19.7 5.64zM52 47.8L47.8 52 35.1 39.3v-2.6l-3.02-1.6 3.03-3.03L36.64 35h2.68z"/></symbol><symbol viewBox="0 0 19 19" id="ui-search-md"><path fill-rule="evenodd" d="M7 0a7 7 0 1 1-7 7 7 7 0 0 1 7-7zm0 2a5 5 0 1 1-5 5 4.98 4.98 0 0 1 5-5zm11.47 14.98l-1.5 1.5-4.5-4.52v-.92l-1.08-.57 1.06-1.08.54 1.02h.96z"/></symbol><symbol viewBox="0 0 16 16" id="ui-search-sm"><path fill-rule="evenodd" d="M6.06 0A5.9 5.9 0 0 1 12 6a6.1 6.1 0 0 1-1.3 3.96 6.1 6.1 0 0 1-.72.73A6.1 6.1 0 0 1 6 12a5.9 5.9 0 0 1-6-5.94A6.06 6.06 0 0 1 6.06 0zM6 2a3.8 3.8 0 0 1 4 4 3.75 3.75 0 0 1-4 4 3.77 3.77 0 0 1-4-4 3.77 3.77 0 0 1 4-4zm10 12.7L14.7 16l-3.9-3.9v-.8l-.93-.5.93-.93.47.9h.83z"/></symbol><symbol viewBox="0 0 28 35" id="ui-secure-lg"><path fill-rule="evenodd" d="M14 18h10s-.4 13.13-10 14V18zM3 18h11V3.18L3 9v9zM27.98 6.36S29.4 35 14 35 .02 6.36.02 6.36L14 0z"/></symbol><symbol viewBox="0 0 32 32" id="ui-share"><path d="M28 15.5L18 6v5.333C8.667 12.666 5.333 19.333 4 26c3.333-4.667 7.333-6.8 14-6.8v5.467L28 15.5z"/></symbol><symbol viewBox="0 0 22 19" id="ui-shop_basket-sm"><path fill-rule="evenodd" d="M11 3L8 7h6zm0 8a2 2 0 1 1-2 2 2 2 0 0 1 2-2zM0 7h22l-3 12H3zm16 0l-5-7-5 7"/></symbol><symbol viewBox="0 0 58 58" id="ui-shopping_basket-lg"><path d="M0 58l8-43h9v-3a12 12 0 1 1 24 0v3h9l8 43H0zm37-46c0-5-3-9-8-9s-8 4-8 9v3h16v-3zm10 7h-6v3c.8.6 2 1.8 2 3a3.5 3.5 0 0 1-7 0c0-1-.2-2 .8-2H29h7.8a1 1 0 0 1 1.2-1v-3H20v3a2 2 0 0 1 1.6 1H29h-7.4a2.5 2.5 0 0 1 .4 2 3.3 3.3 0 0 1-3.5 3 3 3 0 0 1-3.2-3c0-1.2.4-3 1.7-3v-3h-6L5 54h48z"/></symbol><symbol viewBox="0 0 23 24" id="ui-shopping_basket-md"><path d="M0 24L3.03 7.2h3.02V4.8c0-2.65 2.74-4.8 5.4-4.8s5.5 2.15 5.5 4.8v2.4h3.02L23 24H0zM15.74 4.8c0-2-2.27-3.6-4.28-3.6s-4.2 1.6-4.2 3.6v2.4h8.48V4.8zm3.02 3.6h-1.8v1.2h-1.22V8.4H7.26v1.2h-1.2V8.4H4.23l-2.4 14.4h19.35zm-1.2 2.4a1.2 1.2 0 1 1-1.22-1.2 1.2 1.2 0 0 1 1.2 1.2zm-9.7 0a1.2 1.2 0 1 1-1.2-1.2 1.2 1.2 0 0 1 1.2 1.2z"/></symbol><symbol viewBox="0 0 19 19" id="ui-shopping_basket-sm"><path fill-rule="evenodd" d="M0 19L2.53 4.98H5.5V3.93a4 4 0 0 1 8 .02v1.02h3L19 19H0zM12 3.94C12 2.28 11.13 1 9.5 1S6.97 2.3 6.97 3.93v1.04H12V3.94zM15.05 6h-1.62v1.15a.9.9 0 0 1 .63.87 1.23 1.23 0 0 1-1.12 1.16 1.15 1.15 0 0 1-1.14-1.13c0-.26-.07-.5.27-.5H9.5h2.56a.35.35 0 0 1 .4-.38V6h-5.9v1.15a.68.68 0 0 1 .5.4.6.6 0 0 1 .13.5A1.16 1.16 0 0 1 6.05 9.2 1.02 1.02 0 0 1 5 8.14a.9.9 0 0 1 .57-1V6H4L1.98 17.97h15z"/></symbol><symbol viewBox="0 0 20 19" id="ui-star"><path d="M16.4 18.8l-6.3-3L4 19l1-7-5-4.6 7-1L10 0l3 6.2 7 1-5 4.8z"/></symbol><symbol viewBox="0 0 15 17" id="ui-timer"><path d="M7.5 17A7.44 7.44 0 1 1 15 9.56 7.47 7.47 0 0 1 7.5 17zm0-13.02a5.58 5.58 0 1 0 5.63 5.58A5.6 5.6 0 0 0 7.5 3.98zm-.8 2.4h1.6v4.5H6.7V6.4zM5.1 0h4.8v1.33H5.1V0z"/></symbol><symbol viewBox="0 0 19 17" id="ui-twitter"><path d="M16.84 7.22A2.3 2.3 0 0 0 18.9 5.9a3.2 3.2 0 0 1-2.23.27l-.1-.47c-.5-1.97-2.23-3.56-4.03-3.37l.44-.18c.2-.07 1.37-.27 1.18-.7-.15-.4-1.58.28-1.84.37a1.44 1.44 0 0 0 1-.82 2.75 2.75 0 0 0-1.5.75 1.12 1.12 0 0 0 .3-.6c-1.45 1-2.3 2.98-2.98 4.9A7.18 7.18 0 0 0 7.7 4.82a36.4 36.4 0 0 0-4.87-2.3A2.78 2.78 0 0 0 4.46 5.1a3.76 3.76 0 0 0-1.17.15A2.46 2.46 0 0 0 5.4 7.25a1.68 1.68 0 0 0-1.3.55 2.17 2.17 0 0 0 2.33 1.23c-1.45.67-.6 1.9.6 1.73a4.8 4.8 0 0 1-7.05.2c4.78 6.96 15.18 4.1 16.73-2.6a2.8 2.8 0 0 0 2.26-.9 4.35 4.35 0 0 1-2.16-.24z"/></symbol><symbol viewBox="0 0 12 12" id="ui-user-xs"><path d="M0 12c.034-2.817 2.707-5.093 6-5.093 3.292 0 5.966 2.275 6 5.093h-12zm6-6c-1.657 0-3-1.343-3-3s1.343-3 3-3 3 1.343 3 3-1.343 3-3 3z"/></symbol><symbol viewBox="0 0 18 19" id="ui-user"><path d="M9 0a5 5 0 1 1-5 5 5 5 0 0 1 5-5zM0 15s4.46-3 8.94-3c4.52 0 9.06 3 9.06 3v4H0v-4z"/></symbol><symbol viewBox="0 0 2 10" id="ui-warning-sm"><path d="M0 8h2v2H0zm0-8h2v6H0z"/></symbol><symbol viewBox="0 0 28 32" id="ui-whatsapp-new"><path d="M23.806 6.069c-2.619-2.625-6.106-4.069-9.813-4.069-7.65 0-13.875 6.225-13.875 13.875 0 2.444 0.637 4.831 1.85 6.938l-1.969 7.188 7.356-1.931c2.025 1.106 4.306 1.688 6.631 1.688h0.006c7.644 0 14.006-6.225 14.006-13.875 0-3.706-1.575-7.188-4.194-9.813zM13.994 27.419c-2.075 0-4.106-0.556-5.875-1.606l-0.419-0.25-4.362 1.144 1.162-4.256-0.275-0.438c-1.156-1.837-1.763-3.956-1.763-6.137 0-6.356 5.175-11.531 11.538-11.531 3.081 0 5.975 1.2 8.15 3.381s3.512 5.075 3.506 8.156c0 6.362-5.306 11.537-11.662 11.537zM20.319 18.781c-0.344-0.175-2.050-1.012-2.369-1.125-0.319-0.119-0.55-0.175-0.781 0.175s-0.894 1.125-1.1 1.363c-0.2 0.231-0.406 0.262-0.75 0.087-2.037-1.019-3.375-1.819-4.719-4.125-0.356-0.613 0.356-0.569 1.019-1.894 0.113-0.231 0.056-0.431-0.031-0.606s-0.781-1.881-1.069-2.575c-0.281-0.675-0.569-0.581-0.781-0.594-0.2-0.012-0.431-0.012-0.662-0.012s-0.606 0.088-0.925 0.431c-0.319 0.35-1.213 1.188-1.213 2.894s1.244 3.356 1.412 3.587c0.175 0.231 2.444 3.731 5.925 5.238 2.2 0.95 3.063 1.031 4.162 0.869 0.669-0.1 2.050-0.837 2.337-1.65s0.288-1.506 0.2-1.65c-0.081-0.156-0.313-0.244-0.656-0.413z"/> </symbol><symbol viewBox="0 0 19 17" id="ui-whatsapp"><path d="M15.66 2.34A8 8 0 0 0 2 7.96a7.9 7.9 0 0 0 1.08 3.97L1 17l5.18-2.06a8.02 8.02 0 0 0 3.82.97 7.98 7.98 0 0 0 8-7.94 7.88 7.88 0 0 0-2.34-5.62M10 14a5.98 5.98 0 0 1-3.05-.85l-.22-.13-2.26.6.6-2.2-.14-.24A6 6 0 0 1 10 2a5.9 5.9 0 0 1 4.14 1.84A5.9 5.9 0 0 1 16 8a6 6 0 0 1-6 6m3.2-4.57c-.16-.1-1.03-.5-1.18-.57a.28.28 0 0 0-.4.1l-.56.68a.27.27 0 0 1-.4.04 4.82 4.82 0 0 1-1.4-.87 5.3 5.3 0 0 1-.98-1.2.26.26 0 0 1 .07-.36l.27-.3a1.2 1.2 0 0 0 .17-.3.32.32 0 0 0-.02-.3l-.54-1.3a.35.35 0 0 0-.4-.3c-.1-.02-.22-.02-.34-.02a.65.65 0 0 0-.47.22A1.96 1.96 0 0 0 6.4 6.4a3.4 3.4 0 0 0 .73 1.82 7.84 7.84 0 0 0 3 2.65 10.22 10.22 0 0 0 1 .37 2.43 2.43 0 0 0 1.12.06 1.8 1.8 0 0 0 1.2-.83 1.46 1.46 0 0 0 .1-.83.9.9 0 0 0-.35-.2"/></symbol><symbol viewBox="0 0 19 17" id="ui-youtube"><path d="M18 4.56A2.48 2.48 0 0 0 15.63 2H3.4A2.48 2.48 0 0 0 1 4.55v7.88A2.48 2.48 0 0 0 3.4 15h12.22a2.48 2.48 0 0 0 2.4-2.57V4.56zM8 12V6l3.98 2.67z"/></symbol><symbol viewBox="0 0 24 24" id="ui-zoom_in_black"> <path d="M15.5 14h-.79l-.28-.27C15.41 12.59 16 11.11 16 9.5 16 5.91 13.09 3 9.5 3S3 5.91 3 9.5 5.91 16 9.5 16c1.61 0 3.09-.59 4.23-1.57l.27.28v.79l5 4.99L20.49 19l-4.99-5zm-6 0C7.01 14 5 11.99 5 9.5S7.01 5 9.5 5 14 7.01 14 9.5 11.99 14 9.5 14z"/> <path d="M0 0h24v24H0V0z" fill="none"/> <path d="M12 10h-2v2H9v-2H7V9h2V7h1v2h2v1z"/> </symbol></svg>